<?xml version="1.0" standalone="no"?>
<!DOCTYPE svg PUBLIC "-//W3C//DTD SVG 20010904//EN"
 "http://www.w3.org/TR/2001/REC-SVG-20010904/DTD/svg10.dtd">
<svg version="1.0" xmlns="http://www.w3.org/2000/svg"
 width="512.000000pt" height="512.000000pt" viewBox="0 0 512.000000 512.000000"
 preserveAspectRatio="xMidYMid meet">

<g transform="translate(0.000000,512.000000) scale(0.100000,-0.100000)"
fill="#000000" stroke="none">
<path d="M110 4853 c-37 -14 -74 -49 -91 -87 -18 -39 -19 -82 -19 -841 l0
-801 23 -44 c37 -74 66 -84 247 -90 l155 -5 3 -1277 2 -1276 -191 -4 -191 -3
-24 -28 c-13 -15 -24 -37 -24 -48 0 -28 26 -75 45 -83 22 -8 5008 -8 5030 0
19 8 45 55 45 83 0 11 -11 33 -24 48 l-24 28 -191 3 -191 4 2 1276 3 1277 155
5 c181 6 210 16 248 90 l22 44 0 801 c0 759 -1 802 -19 841 -10 23 -34 52 -52
65 l-34 24 -2445 2 c-1345 1 -2452 -1 -2460 -4z m4840 -928 l0 -765 -2390 0
-2390 0 0 765 0 765 2390 0 2390 0 0 -765z m-4180 -2215 l0 -1280 -85 0 -85 0
0 1280 0 1280 85 0 85 0 0 -1280z m3410 0 l0 -1280 -1620 0 -1620 0 0 1280 0
1280 1620 0 1620 0 0 -1280z m340 0 l0 -1280 -85 0 -85 0 0 1280 0 1280 85 0
85 0 0 -1280z"/>
<path d="M660 4427 c-270 -61 -313 -425 -65 -555 45 -24 64 -27 195 -32 158
-5 179 -12 210 -63 25 -41 25 -91 0 -131 -33 -54 -58 -61 -212 -61 l-140 0
-24 28 c-13 15 -24 37 -24 48 0 77 -92 118 -145 64 -70 -69 18 -253 141 -296
27 -10 90 -14 204 -14 160 0 167 1 222 28 67 33 112 80 146 155 20 45 24 65
20 125 -6 117 -69 213 -172 258 -42 19 -75 24 -191 28 -153 6 -174 13 -205 64
-25 41 -25 91 0 131 33 54 58 61 211 61 130 0 139 -1 162 -23 14 -13 28 -40
32 -60 9 -52 40 -82 85 -82 104 0 109 159 9 259 -61 61 -106 75 -264 78 -85 1
-161 -2 -195 -10z"/>
<path d="M1343 4433 c-30 -6 -63 -49 -63 -83 0 -15 11 -39 25 -54 24 -26 25
-26 170 -26 l145 0 0 -389 c0 -234 4 -400 10 -416 13 -34 69 -59 104 -46 56
22 56 21 56 453 l0 398 145 0 c142 0 147 1 170 25 34 33 34 83 -1 116 l-26 24
-356 1 c-196 1 -367 0 -379 -3z"/>
<path d="M2443 4430 c-12 -5 -29 -19 -37 -32 -25 -39 -356 -877 -356 -901 0
-57 60 -96 114 -73 35 14 49 38 101 174 l28 72 182 0 182 0 43 -110 c24 -60
51 -117 62 -127 30 -27 86 -22 114 11 13 15 24 38 24 52 0 33 -347 898 -368
917 -23 21 -62 28 -89 17z m90 -452 l55 -138 -113 0 -113 0 56 140 c30 77 57
139 58 137 1 -1 27 -64 57 -139z"/>
<path d="M3122 4425 c-18 -8 -37 -26 -42 -40 -6 -16 -10 -198 -10 -461 0 -478
0 -482 60 -502 35 -13 56 -8 88 21 21 20 22 26 22 209 l0 188 63 0 62 0 115
-192 c63 -106 123 -201 133 -210 10 -11 32 -18 56 -18 31 0 44 6 61 28 34 43
22 81 -79 248 -50 84 -91 155 -91 158 0 3 17 14 39 25 52 27 116 102 135 158
24 69 21 158 -8 218 -47 101 -115 155 -220 174 -89 16 -343 14 -384 -4z m401
-179 c81 -54 74 -176 -13 -221 -21 -11 -62 -15 -150 -15 l-120 0 0 123 c0 68
3 127 8 131 4 5 61 6 127 4 95 -3 126 -8 148 -22z"/>
<path d="M3892 4425 c-56 -24 -66 -92 -20 -135 20 -18 35 -20 165 -20 l143 0
0 -385 c0 -428 2 -443 59 -463 36 -13 67 -4 93 25 16 18 18 56 20 419 l3 399
145 3 c132 2 146 4 167 24 33 31 31 87 -3 119 l-26 24 -356 2 c-292 2 -363 0
-390 -12z"/>
</g>
</svg>
