<svg xmlns="http://www.w3.org/2000/svg" width="23.675" height="23.675" viewBox="0 0 23.675 23.675">
  <path id="Icon_awesome-download" data-name="Icon awesome-download" d="M9.988,0h3.7A1.107,1.107,0,0,1,14.8,1.11V8.878h4.055a.923.923,0,0,1,.652,1.577l-7.033,7.038a.9.9,0,0,1-1.262,0L4.166,10.455a.923.923,0,0,1,.652-1.577h4.06V1.11A1.107,1.107,0,0,1,9.988,0ZM23.675,17.386v5.179a1.107,1.107,0,0,1-1.11,1.11H1.11A1.107,1.107,0,0,1,0,22.565V17.386a1.107,1.107,0,0,1,1.11-1.11H7.893l2.266,2.266a2.369,2.369,0,0,0,3.357,0l2.266-2.266h6.783A1.107,1.107,0,0,1,23.675,17.386Zm-5.734,4.069a.925.925,0,1,0-.925.925A.928.928,0,0,0,17.941,21.456Zm2.959,0a.925.925,0,1,0-.925.925A.928.928,0,0,0,20.9,21.456Z" fill="#fff"/>
</svg>
