<svg xmlns="http://www.w3.org/2000/svg" width="27" height="27" viewBox="0 0 27 27">
  <path id="Icon_awesome-hammer" data-name="Icon awesome-hammer" d="M26.78,10.227,25.72,9.034a.693.693,0,0,0-1.061,0l-.53.6L22.774,8.106a3.657,3.657,0,0,0-.766-3.249L19.886,2.471a6.927,6.927,0,0,0-10.607,0l4.243,2.386v.989A3.6,3.6,0,0,0,14.4,8.232l2.3,2.591a2.764,2.764,0,0,0,2.888.862l1.355,1.524-.53.6a.92.92,0,0,0,0,1.193l1.061,1.193a.693.693,0,0,0,1.061,0l4.243-4.773a.92.92,0,0,0,0-1.193Zm-13.44-.8a5.04,5.04,0,0,1-.462-.63L.921,21.355a3.552,3.552,0,0,0-.072,4.69,2.681,2.681,0,0,0,4.169-.081L16.18,12.513a4.72,4.72,0,0,1-.536-.5l-2.3-2.591Z" transform="translate(0)" fill="#fff"/>
</svg>
