<svg xmlns="http://www.w3.org/2000/svg" width="27" height="27" viewBox="0 0 27 27">
  <path id="Icon_awesome-trash-alt" data-name="Icon awesome-trash-alt" d="M1.929,24.469A2.73,2.73,0,0,0,4.821,27H22.179a2.73,2.73,0,0,0,2.893-2.531V6.75H1.929Zm16.393-13.5a.973.973,0,0,1,1.929,0V22.781a.973.973,0,0,1-1.929,0Zm-5.786,0a.973.973,0,0,1,1.929,0V22.781a.973.973,0,0,1-1.929,0Zm-5.786,0a.91.91,0,0,1,.964-.844.91.91,0,0,1,.964.844V22.781a.91.91,0,0,1-.964.844.91.91,0,0,1-.964-.844ZM26.036,1.687H18.8L18.237.7a1.48,1.48,0,0,0-1.3-.7H10.053a1.461,1.461,0,0,0-1.29.7L8.2,1.687H.964A.91.91,0,0,0,0,2.531V4.219a.91.91,0,0,0,.964.844H26.036A.91.91,0,0,0,27,4.219V2.531A.91.91,0,0,0,26.036,1.687Z" fill="#fff"/>
</svg>
