<svg xmlns="http://www.w3.org/2000/svg" width="22.836" height="22.836" viewBox="0 0 22.836 22.836">
  <path id="Icon_material-donut-small" data-name="Icon material-donut-small" d="M13.276,11.175V3a11.482,11.482,0,0,0,0,22.836V17.661a3.706,3.706,0,0,1-2.284-3.243A3.706,3.706,0,0,1,13.276,11.175Zm4.407,2.1h8.153A11.24,11.24,0,0,0,15.56,3v8.175A3.2,3.2,0,0,1,17.684,13.276ZM15.56,17.661v8.175A11.24,11.24,0,0,0,25.836,15.56H17.684A3.2,3.2,0,0,1,15.56,17.661Z" transform="translate(-3 -3)" fill="#fff"/>
</svg>
