<svg xmlns="http://www.w3.org/2000/svg"  viewBox="0 0 27 27">
  <path id="Icon_simple-clockify" data-name="Icon simple-clockify" d="M19.475,9.279l6.992-6.2,2,1.774-6.992,6.2-2-1.774Zm-2.833,6.339a2.641,2.641,0,0,1-1.754-.649,2.1,2.1,0,0,1-.723-1.558,2.352,2.352,0,0,1,2.475-2.2,2.355,2.355,0,0,1,2.479,2.2,2.1,2.1,0,0,1-.724,1.558,2.644,2.644,0,0,1-1.754.649ZM28.5,22.025l-2,1.776-6.992-6.2,2-1.774Zm-11.783.928a11.75,11.75,0,0,0,3.982-.692l3.415,3.032A16.662,16.662,0,0,1,16.717,27C8.312,27,1.5,20.955,1.5,13.5S8.314,0,16.717,0A16.669,16.669,0,0,1,24.05,1.672L20.692,4.653a11.761,11.761,0,0,0-3.976-.69c-5.885,0-10.656,4.252-10.656,9.495S10.831,22.953,16.717,22.953Z" transform="translate(-1.5)"/>
</svg>
