<svg xmlns="http://www.w3.org/2000/svg" width="24.407" height="18.305" viewBox="0 0 24.407 18.305">
  <path id="Icon_awesome-chart-bar" data-name="Icon awesome-chart-bar" d="M15.864,16.7h1.831a.656.656,0,0,0,.61-.61V9.686a.656.656,0,0,0-.61-.61H15.864a.656.656,0,0,0-.61.61v6.407a.656.656,0,0,0,.61.61Zm4.576,0h1.831a.656.656,0,0,0,.61-.61V5.11a.656.656,0,0,0-.61-.61H20.441a.656.656,0,0,0-.61.61V16.093a.656.656,0,0,0,.61.61Zm-13.729,0H8.542a.656.656,0,0,0,.61-.61V12.737a.656.656,0,0,0-.61-.61H6.712a.656.656,0,0,0-.61.61v3.356A.656.656,0,0,0,6.712,16.7Zm4.576,0h1.831a.656.656,0,0,0,.61-.61V6.636a.656.656,0,0,0-.61-.61H11.288a.656.656,0,0,0-.61.61v9.458A.656.656,0,0,0,11.288,16.7Zm12.356,3.051H3.051V5.263A.763.763,0,0,0,2.288,4.5H.763A.763.763,0,0,0,0,5.263V21.28a1.526,1.526,0,0,0,1.525,1.525H23.644a.763.763,0,0,0,.763-.763V20.517A.763.763,0,0,0,23.644,19.754Z" transform="translate(0 -4.5)" fill="#fff"/>
</svg>
